<?xml version="1.0" encoding="UTF-8"?>
<svg id="Laag_2" data-name="Laag 2" xmlns="http://www.w3.org/2000/svg" viewBox="0 0 322.74 157.97">
  <defs>
    <style>
      .cls-1 {
        fill: #fff;
      }
    </style>
  </defs>
  <g id="Laag_1-2" data-name="Laag 1">
    <path class="cls-1" d="M282.08,88.37c.21.04.38.06.44.3-.11.98.18,1.97.22,2.88.51,11.11-.57,22.66-.02,33.75.56,11.22,8.99,17.72,20.36,17.04,10.22-.61,20.1-9.04,18.84-19.58-.27-2.23-2.12-4.82-4.53-4.93-.49-.02-.89.37-.89.84l-.13,2.29c-.13,1.2-1.1,2.48-1.5,2.75-3.45,2.3-8.84,1.28-9.62-3.17-1-5.76.3-13.07,0-18.94,0-3.87-.11-7.76.21-11.62.08-.91.85-1.61,1.78-1.61h10.3c.33,0,.95-.44,1.03-.82.1-.52.05-5.65-.09-5.92-.49-.96-2.92-.37-3.75-.35-2.48.04-6.53.3-8.83,0,0,0,0,0,0,0-.43-.05-.74-.41-.74-.83l.05-15.24s0-.08,0-.12l-.07-.47c-.06-.39-.37-.68-.77-.72-1.64-.16-3.43.11-5.12.15-.34,0-.64.2-.77.5-3.25,7.22-9.81,13.98-17.75,16.14-1.04.28-4.88.76-5.29,1.06-.64.47-.35,2.26-.38,3.1-.03.83-.55,3.17.7,3.52,1.52.42,4.65-.26,6.34.04M158.61,136.32c-.23.7-.21,3.65.34,4.16.23.21,2.7.39,3.27.42,10.95.5,22.32-.4,33.31,0,1.97-.18,1.67-1.17,1.61-2.36-.02-.36-.2-1.35-.23-1.71-.13-1.42-2.57-2.05-3.63-2.72-4.86-3.06-3.98-10.03-4.12-14.84-.19-6.79-2.11-22.28,6.41-25.21,2.83-.97,6.36-.55,7.27,2.62,1.01,3.52-3.02,5.48-1.6,9.01.73,1.8,3.98,3.15,5.89,3.29,6.68.5,11.67-3.39,13.81-8.53,1.92,14.75,17.93,15.69,29.8,20.69,5.53,2.33,7.52,7.7,2.08,11.48-6.13,4.26-15.44,1.36-17.79-5.49-.52-1.52-1.02-3.68.18-5.01.44-.49,1.61-1.13,1.51-2.01-.14-1.25-4.36-3.23-5.57-3.61-8.82-2.81-17.53,5.31-13.52,13.84,5.92,12.62,26.63,13.34,38.81,11.54,11-1.63,23.68-8.67,22.17-20.97-1.33-10.81-13.48-15.16-22.77-18.12-4.1-1.31-10.35-2.08-12.63-6.03-4.61-7.99,9.96-11.71,14.11-5.28,2.39,3.71,1,10.02,6.79,10.45,5.75.43,12.46-4.78,10.42-10.58-4.05-11.54-22.98-11.92-33.3-10.76-8.38.94-16.57,4.37-19.41,11.43-.34-1.73-1.01-3.42-2.05-4.99-8.08-12.14-23.89-7.59-29.99,3.5-.19.35-.87,2.52-1.45,2.39-.34-.26-.43-.6-.48-1-.25-2.06.52-7.84-.6-9.28-1.19-1.53-3.26-.54-4.73-.02-5.89,2.07-12.86,4.83-18.52,7.41-1.24.56-3.5,1.41-3.72,2.81-.58,3.58,1.45,2.68,3.4,4.01,1.98,1.35,2.21,4.3,2.65,6.39-.29,6.68.47,13.77.03,20.41-.26,3.85-1.12,9.1-4.97,11.09-.8.42-2.45.65-2.75,1.56M123.32,101.01c1.14-3.5,2.56-7.83,6.02-9.75,4.58-2.54,9.25,0,10.47,4.59.53,2,.74,5.63-2.09,5.95-1.74.2-4.71.09-6.62.06-.89-.02-1.74.03-2.7,0-1.53-.03-3.04-.13-4.57-.17-.37,0-.63-.35-.52-.69M157.83,126.71c1.14-2.84,2.85-7.74-.08-10.05-2.21-1.74-2.36.46-3.27,1.78-6.26,9.05-24.14,10.3-29.74-.35-1.33-2.54-1.91-5.57-2.09-8.43-.04-.57.44-1.06,1.05-1.06h34.45c.38-.06.92-.3,1.04-.67.17-.54.1-3.43.04-4.17-1.07-13.92-12.98-23.63-27.68-23-34.42,1.46-44.06,48.46-10.78,60.57,14.26,5.19,31.55-.9,37.05-14.63M4.92,109.06c10.89,11.92,32.37,7.56,33.08-9.98.17-4.34-2.23-9.21-7.24-8.57-1.63.21-1.45,2.49-1.53,3.31-.12,1.21-1.55,2.64-2.69,2.93-3.94,1-7.27-2.35-7.77-6.03-.83-6.1,1.94-11.89,8.37-12.99,7.6-1.3,13.54,1.43,14.04,9.7.73,12.05-.81,24.78-.17,36.91.02,5.85-2.44,14.02-8.65,15.95-2.14.67-3.51-.21-3.8,2.68-.23,2.28.28,2.9,2.55,3.06,13.61-.15,27.27.27,40.85-.22,1.08-.43.89-2.51.8-3.54-.16-1.79-2.87-1.95-4.31-2.67-6.44-3.21-7.29-11.55-7.51-17.92-.07-2.15-.31-8.43.38-10.11.6-1.46,1.46-1.54,2.85-.93,5.32,2.31,8.3,15.37,10.33,20.59,2.39,6.14,8.64,15.57,14.05,19.35,10.28,7.19,25.32,8.68,37.42,6.36,3.49-.67,11.35-3.22,13.34-6.27.36-.55.85-2.05-.15-1.99-.34.02-3.08,1.72-3.81,2.03-8.32,3.47-18.02,1.11-25.03-4.12-8.72-6.49-15.25-19.8-20.1-29.43-3.16-6.27-5.49-14.11-13.07-16.35-2.75-.81-4.66-.2-7.38-.01-.48-.28,1-2.35,1.27-2.76,3.38-5.16,10.33-13.94,16.9-14.51,5.11-.44,5.28,1.63,8.48,4.33,7.74,6.55,15.68-2.7,13.43-10.94-2.53-9.26-17.09-8.42-24.28-6.4-4.62,1.3-10.22,3.88-13.58,7.36-4.03,4.16-7.14,12.6-9.18,18.08-.23.62-1.32,4.29-1.62,4.36-.51-.09-.54-1.56-.58-2.08-.19-3.06.12-6.11.33-9.14.31-4.53.45-10.1,3.57-13.71.44-.51,2.05-1.77,2.17-2.15.21-.66.11-2.7-.75-2.93-4.85-.18-9.71-.02-14.56-.07-13.35-.13-30.03-2.29-41.51,5.84C-.12,83.17-3.72,99.6,4.92,109.06M49.68,37.9c-1.28,7.14-6.06,13.04-13.69,13.45-12.96.69-16.43-12.98-16.52-23.42-.11-11.83,5.16-22.68,18.4-22.38,8.92.2,13.08,10.65,9.64,18.08-3.32,7.17-13.24,5.07-11.32-2.85,1.16-4.8,7.12-4.21,8.88-.21,0,0,.1.26.27.26s.26-.33.26-.33c2.46-5.11-.33-10.86-5.68-12.49-3.96-1.21-8.63,0-11.79,2.63-10.25,8.49-3.55,25.56,8.93,27.21,5.14.68,8.98-.71,11.96-4.93.3-.43.33-1.25,1.07-1.09.04,2.02-.03,4.1-.39,6.09M67.87,33.45C68.57,13.09,54.07-.94,33.78.05,17.4.84,1.35,11.95.11,29.3c-1.19,16.67,7.52,29.95,24.19,33.2,20.86,4.07,42.77-5.72,43.57-29.05M93.2,53.07c-7.11.71-6.72-12.08-6.48-16.68.16-3,1.04-10.47,4.79-11.11,5.55-.94,6.58,5.49,7.11,9.58.61,4.66,1.37,17.54-5.42,18.21M112.81,48.13c2.67-9.18,1.17-21.57-7.48-27.08-5.86-3.74-13.34-3.54-17.84,2.11,0,0-.38.05-.43-.26-.05-.31.07-3.55.03-3.85-.04-.29-.46-.78-.55-.82-.7-.33-1.83.3-2.53.57-4.11,1.62-9.37,3.89-13.26,5.93-1.2.63-2.08.93-2.01,2.48.11,2.42,1.76,1.41,2.56,3.33,1.56,3.78.9,13.15.91,17.6.01,6.07-.05,13.73-.04,19.82,0,1.01-.73,5.16.97,5.1.81-.03,5.05-2.56,6.24-3.11,2.23-1.02,4.57-1.79,6.87-2.65.3-.11.5-.4.51-.72l.12-7.96c.01-.63.73-.99,1.24-.61.41.3.81.62.98.72,9.84,5.92,20.75-.34,23.73-10.61M130.28,33.19c.62-3.82,3.68-9.97,8.47-7.87,2.32,1.02,2.88,4.45,2.34,6.66-.3,1.23-2.26,1.08-3.63,1.02-2.4-.1-4.79.11-7.18.18M130.1,37.86c0-.19.17-.35.36-.35h22.56c.59,0,.47-2.4.44-2.86-1.06-17.34-19.66-20.3-31.21-9.93-9.81,8.81-9.36,26.49,2.39,33.39,9.4,5.52,23.06,3.03,27.75-7.4.99-2.2,2.59-7.12-.53-8.08-.21-.06-.45,0-.57.19-.53.79-.83,1.6-1.47,2.39-2.58,3.14-7.17,4.57-11.15,4.23-6-.51-8.67-6.15-8.57-11.58M214.83,42.79c-.23,3.36-1.59,7.71-5.49,8.34-3.56.57-6.32-2.56-4.8-6.01,1.32-3,7.58-4.89,10.29-6.57,0,1.36.1,2.85,0,4.24M229.16,48.32c-.6-6.91,1.58-16.6-2.31-22.59-5.27-8.13-18.88-8.78-26.85-4.68-1.44.74-2.54,1.78-3.77,2.8-.74-1.45-1.4-2.99-2.59-4.16-4.39-4.31-13.14-1.63-16.86,2.52-.57.63-2.31,3.55-3.16,4.57-.18.21-.51.21-.68,0l-.03-.04c-.09-.11-.14-.24-.14-.39l.03-6.74c0-.39-1.02-.99-1.47-.62-5.09,2.38-10.75,4.25-15.76,6.73-1.32.65-2.02,1.07-1.79,2.72.16,1.17,1.23.93,2.03,1.25,2.4.94,2.53,4.27,2.65,6.51.2,3.87.44,13.84-.83,17.16-.27.7-1.19,1.9-1.78,2.37-1.63,1.29-2.89.89-2.03,3.61.07.22.26.39.49.41.6.05,1.21.2,1.8.23,6.56.38,13.39-.16,19.89-.2.69,0,2.11.53,2.33-.59.63-3.24-1.46-2.28-3.03-3.88-2-2.06-1.84-5.74-1.98-8.4-.33-6.32-1.46-21.99,8.72-20.83,1.89.21,3.67,1.79,3.29,3.81-.32,1.74-2.55,3.13-2.33,4.56.2,1.37,2.33,2.08,3.53,2.18,3.47.3,5.72-1.18,7.96-3.64l1.21,1.38c3.05,3.48,9.45.56,11.1-2.89,1.37-2.89-2.05-2.46-1.68-4.95.13-.89,2-2.44,2.84-2.7,5.6-1.74,9.55,5.46,5.1,9.24-3.38,2.87-12.46,3.97-16.99,6.35-5.64,2.96-7.37,8.28-5.73,14.33,2.13,7.84,13.32,8.91,19.46,5.45.93-.53,3.49-2.94,4.22-2.86.44.04,1.92,1.83,2.43,2.25,5.08,4.13,14.9,2.24,17.52-3.91.21-.5,1.03-3.02.27-3.17-2.75,1.12-4.85-.32-5.09-3.2M256.6,42.66c.51,2.07,1.04,4.04-.63,5.84-2.61,2.82-6.32.73-6.38-2.8.23-6.18-.38-12.68-.03-18.83.04-.6.09-2.23.61-2.33,1.27-.24,6.66.35,7.3-.21.16-.21.19-.48.22-.73.05-.58.17-3.55-.43-3.55h-7.69v-11.24h-3.37c-.5.52-.59,1.24-.92,1.85-2.14,3.92-6.82,8.31-11.26,9.31-.51.12-2.78.17-2.78.68v3.63l.26.26h3.46c.17.11.22.24.26.43.19,1.01-.04,2.84,0,3.98.17,6.85-.8,16.19.4,22.77,2.31,12.7,24.21,11.91,26.21-1.18.54-3.56-.49-8.66-4.83-8.41-.27.01-.46.27-.39.53M281.03,10.63c.21-6.3-5.37-8.32-10.75-7.81-3.9.37-7.93,2.58-8.98,6.58-3.05,11.6,19.35,12.78,19.73,1.23M284.18,56.55c-1.31-.79-2.3-1.54-2.94-3.09-1.02-2.48-1.02-6.73-1.09-9.46-.18-7.13.66-14.77,0-21.79-.17-1.84-.53-2.51-2.46-2.29-1.01.12-2.64.82-3.64,1.2-3.59,1.36-7.79,3.02-11.25,4.65-1.53.72-2.47.84-2.19,2.84.14,1.03,1.31.92,2.14,1.32,2.14,1.04,2.43,3.43,2.54,5.58.2,3.69.17,8.41,0,12.12-.12,2.61-.43,5.44-2.17,7.51-1.12,1.35-2.94,1.78-2.3,4.02.2.71,1.63.78,2.29.82,5.47.39,13.33.28,18.86,0,.67-.03,1.29-.04,2.06-.15.21-.03.66-.05.66-.34v-.64l-.05-1.52c-.01-.32-.19-.62-.47-.79M298.36,33.02c-.26,0-.46-.24-.41-.49.74-3.56,3.08-8.4,7.38-7.59,3.1.58,4.67,5.4,2.81,7.84-.11.15-.3.23-.49.23l-9.3.02ZM298.83,37.51l23.04-.09c.22,0,.43-.14.5-.35.44-1.26-.18-4.62-.42-5.65-4.15-17.71-26.68-15.57-34.73-1.98-3.92,6.62-4.26,16.31.06,22.82,7.07,10.65,24.13,12.07,32.02,1.66,1.71-2.26,3.82-6.52,3.37-9.4-.12-.78-1.39-2.37-2.24-1.92-.12.06-1.04,1.82-1.39,2.25-3.1,3.82-9.3,5.58-13.94,3.93-4.35-1.55-6.34-6.99-6.28-11.27"/>
  </g>
</svg>